<svg width="16" height="16" viewBox="0 0 16 16" fill="none" xmlns="http://www.w3.org/2000/svg">
<g clip-path="url(#clip0_5_20)">
<path d="M5.33331 6H10.6666" stroke="#888692" stroke-width="1.5" stroke-linecap="round" stroke-linejoin="round"/>
<path d="M5.33331 8.66669H9.33331" stroke="#888692" stroke-width="1.5" stroke-linecap="round" stroke-linejoin="round"/>
<path d="M8.00667 12.396L5.33333 14V12H4C3.46957 12 2.96086 11.7893 2.58579 11.4142C2.21071 11.0392 2 10.5305 2 10V4.66669C2 4.13625 2.21071 3.62755 2.58579 3.25247C2.96086 2.8774 3.46957 2.66669 4 2.66669H12C12.5304 2.66669 13.0391 2.8774 13.4142 3.25247C13.7893 3.62755 14 4.13625 14 4.66669V8.33335" stroke="#888692" stroke-width="1.5" stroke-linecap="round" stroke-linejoin="round"/>
<path d="M10.6667 12.6667H14.6667" stroke="#888692" stroke-width="1.5" stroke-linecap="round" stroke-linejoin="round"/>
<path d="M12.6667 10.6667V14.6667" stroke="#888692" stroke-width="1.5" stroke-linecap="round" stroke-linejoin="round"/>
</g>
<defs>
<clipPath id="clip0_5_20">
<rect width="16" height="16" fill="white"/>
</clipPath>
</defs>
</svg>
