<svg width="24" height="24" viewBox="0 0 24 24" fill="none" xmlns="http://www.w3.org/2000/svg">
<rect width="24" height="24" rx="6" fill="#0019F5"/>
<circle cx="12.4695" cy="10" r="4" fill="white"/>
<path d="M6 15.4169C6.74265 16.4379 7.71639 17.2686 8.84159 17.8411C9.9668 18.4136 11.2115 18.7117 12.474 18.711C13.7365 18.7103 14.9809 18.4108 16.1054 17.837C17.23 17.2632 18.2028 16.4314 18.9443 15.4096L17.0018 14C16.4828 14.7153 15.8018 15.2975 15.0146 15.6992C14.2275 16.1008 13.3564 16.3105 12.4726 16.311C11.5889 16.3115 10.7176 16.1028 9.92995 15.7021C9.14231 15.3013 8.46069 14.7198 7.94084 14.0052L6 15.4169Z" fill="white"/>
</svg>
