<svg width="100" height="100" viewBox="0 0 100 100" fill="none" xmlns="http://www.w3.org/2000/svg">
<mask id="mask0_68_1750" style="mask-type:alpha" maskUnits="userSpaceOnUse" x="8" y="14" width="74" height="60">
<rect x="8.00781" y="14.0625" width="73.0469" height="59.1797" rx="10.4199" fill="#D9D9D9"/>
</mask>
<g mask="url(#mask0_68_1750)">
<rect x="8.00781" y="14.0625" width="73.0469" height="59.1797" rx="10.4199" fill="#D3D1DB"/>
<path d="M54.5043 39.9234C55.5043 38.9539 57.0934 38.9539 58.0934 39.9234L91.7204 72.524C93.3834 74.1362 92.2421 76.9531 89.9259 76.9531H22.6718C20.3556 76.9531 19.2142 74.1362 20.8772 72.524L54.5043 39.9234Z" fill="#B1AFB9"/>
<path d="M33.0199 45.7827C34.0199 44.8133 35.609 44.8133 36.609 45.7827L70.2361 78.3833C71.899 79.9955 70.7577 82.8125 68.4415 82.8125H1.18739C-1.12879 82.8125 -2.27013 79.9955 -0.607157 78.3833L33.0199 45.7827Z" fill="#F4F4F7"/>
</g>
<circle cx="23.418" cy="30.0781" r="7.73438" fill="#B1AFB9"/>
<rect x="49.4141" y="56.1523" width="42.7734" height="34.668" rx="7.73438" fill="white"/>
<path d="M69.0764 74.1359C68.1998 74.9156 65.98 77.6091 65.0564 77.8095C64.0276 78.0329 62.9101 77.338 62.7435 76.2817C62.5889 75.3031 63.5751 74.5176 64.1871 73.8952L68.3887 69.6612C69.0903 68.9569 69.8144 67.9634 70.8523 67.78C72.1431 67.7363 73.093 69.1736 73.9026 69.9918L77.9063 74.026C80.7218 76.8455 77.841 78.5101 76.2468 77.5121C75.3888 76.9749 73.7502 75.1306 72.9904 74.3194L72.992 79.5273C72.9918 81.4277 73.5465 84.3615 70.6952 84.2155C68.6516 83.7757 69.0729 81.8124 69.0732 80.226C69.0737 78.2014 69.1376 76.158 69.0764 74.1359Z" fill="#B1AFB9"/>
</svg>
